<?xml version="1.0" standalone="no"?>
<!DOCTYPE svg PUBLIC "-//W3C//DTD SVG 20010904//EN"
 "http://www.w3.org/TR/2001/REC-SVG-20010904/DTD/svg10.dtd">
<svg version="1.0" xmlns="http://www.w3.org/2000/svg"
 width="260.000000pt" height="260.000000pt" viewBox="0 0 260.000000 260.000000"
 preserveAspectRatio="xMidYMid meet">
<metadata>
Created by potrace 1.11, written by Peter Selinger 2001-2013
</metadata>
<g transform="translate(0.000000,260.000000) scale(0.100000,-0.100000)"
fill="#000000" stroke="none">
<path d="M1283 2583 c15 -2 37 -2 50 0 12 2 0 4 -28 4 -27 0 -38 -2 -22 -4z"/>
<path d="M1138 2573 c7 -3 16 -2 19 1 4 3 -2 6 -13 5 -11 0 -14 -3 -6 -6z"/>
<path d="M1443 2573 c9 -2 23 -2 30 0 6 3 -1 5 -18 5 -16 0 -22 -2 -12 -5z"/>
<path d="M1193 2553 c-13 -6 -23 -8 -23 -2 0 5 -16 9 -36 9 -24 0 -33 -4 -28
-12 5 -7 2 -9 -9 -5 -8 3 -33 8 -54 12 -30 4 -34 3 -18 -5 16 -8 13 -9 -15 -5
-26 4 -31 2 -20 -6 11 -8 6 -9 -20 -4 -23 4 -30 3 -22 -3 11 -7 6 -12 -18 -21
-22 -7 -30 -15 -26 -26 5 -14 -11 -21 -38 -16 -5 1 -13 -4 -17 -11 -7 -10 -9
-9 -9 4 0 11 -5 15 -15 12 -8 -4 -15 -1 -15 6 0 6 -5 10 -11 8 -6 -2 -10 -7
-9 -12 2 -9 -19 -26 -33 -26 -5 0 -5 5 -2 10 4 6 -5 5 -19 -2 -44 -20 -27 -45
19 -28 21 8 26 7 22 -2 -2 -7 -10 -12 -16 -10 -7 1 -21 -3 -33 -9 -15 -8 -18
-8 -14 0 10 16 -10 13 -24 -4 -6 -8 -9 -19 -5 -25 3 -5 -1 -10 -9 -10 -9 0
-16 -4 -16 -10 0 -5 -9 -10 -20 -10 -11 0 -20 -4 -20 -10 0 -5 -11 -10 -25
-10 -14 0 -25 -4 -25 -10 0 -6 -9 -6 -26 0 -23 9 -32 5 -72 -29 -64 -54 -128
-121 -117 -122 6 0 0 -4 -12 -9 -13 -5 -23 -18 -23 -28 0 -20 -23 -46 -32 -37
-2 3 -19 -16 -37 -41 -18 -25 -31 -47 -28 -50 3 -3 -6 -16 -20 -30 -31 -31
-105 -186 -133 -279 -11 -38 -25 -84 -30 -101 -6 -17 -17 -80 -26 -140 -26
-181 -4 -397 58 -572 138 -393 425 -678 811 -807 137 -46 258 -65 404 -65 152
0 247 13 376 51 382 114 684 389 831 757 192 483 83 1017 -282 1381 -64 63
-97 89 -102 81 -6 -9 -13 -7 -29 9 -11 11 -25 21 -31 21 -5 0 -10 5 -10 11 0
6 7 8 18 5 16 -7 16 -6 -1 11 -15 16 -19 16 -28 3 -8 -13 -9 -13 -7 2 2 10
-14 28 -42 47 -47 32 -72 33 -30 1 14 -10 21 -22 17 -26 -10 -10 12 -34 26
-28 7 2 20 -9 30 -25 9 -16 25 -28 34 -27 11 0 18 -6 18 -16 0 -9 9 -26 20
-39 13 -15 4 -11 -27 12 -26 19 -51 44 -54 57 -6 22 -24 31 -24 12 0 -5 -17 2
-37 16 -47 32 -48 32 -27 31 9 -1 19 4 22 12 3 10 0 12 -12 8 -13 -5 -16 0
-16 26 0 18 -4 27 -8 21 -4 -6 -23 -11 -42 -12 -26 0 -30 2 -15 7 17 7 14 10
-20 21 -55 18 -89 41 -74 50 6 5 -18 17 -57 30 -44 15 -69 19 -72 12 -2 -6
-17 -8 -39 -5 -27 5 -34 3 -28 -6 6 -10 3 -11 -15 -1 -20 11 -22 10 -17 -4 7
-18 -4 -20 -76 -10 -26 4 -45 10 -42 14 2 4 -6 6 -18 4 -53 -7 -257 -12 -257
-5 0 3 20 11 45 17 25 6 45 7 45 2 0 -4 7 -8 16 -8 9 0 12 5 8 13 -6 9 -4 9 7
1 17 -13 125 -18 133 -6 5 8 -1 10 -44 14 -11 1 -20 5 -20 8 0 12 -113 5 -137
-7z m488 -41 c-7 -2 -18 1 -23 6 -8 8 -4 9 13 5 13 -4 18 -8 10 -11z m-568 -9
c-7 -2 -21 -2 -30 0 -10 3 -4 5 12 5 17 0 24 -2 18 -5z m-56 -9 c-3 -3 -12 -4
-19 -1 -8 3 -5 6 6 6 11 1 17 -2 13 -5z m520 0 c-3 -3 -12 -4 -19 -1 -8 3 -5
6 6 6 11 1 17 -2 13 -5z m-200 -10 c-3 -3 -12 -4 -19 -1 -8 3 -5 6 6 6 11 1
17 -2 13 -5z m-234 -11 c-7 -2 -19 -2 -25 0 -7 3 -2 5 12 5 14 0 19 -2 13 -5z
m320 0 c-7 -2 -19 -2 -25 0 -7 3 -2 5 12 5 14 0 19 -2 13 -5z m-31 -19 c182
-23 391 -100 505 -185 29 -21 56 -39 61 -39 9 0 138 -123 190 -182 51 -58 103
-139 95 -151 -3 -6 -1 -7 6 -3 10 7 28 -25 33 -59 0 -5 7 -14 14 -20 6 -5 29
-48 49 -95 26 -61 36 -95 33 -122 -2 -21 0 -38 4 -38 16 0 40 -111 45 -211 6
-116 -6 -230 -38 -348 -11 -40 -18 -75 -16 -77 7 -7 47 134 57 201 41 288 -25
580 -187 823 -101 152 -234 275 -404 375 -48 28 -86 53 -84 55 6 7 115 -50
115 -60 0 -4 6 -8 14 -8 8 0 21 -6 28 -13 7 -8 24 -19 36 -26 29 -15 38 -23
131 -108 216 -199 355 -492 367 -778 2 -66 6 -150 8 -187 1 -37 -1 -65 -5 -62
-4 2 -5 -12 -2 -32 4 -24 3 -35 -4 -31 -13 8 -25 -46 -16 -70 5 -12 3 -14 -7
-8 -10 6 -12 4 -7 -10 8 -20 -32 -142 -74 -225 -15 -30 -41 -64 -58 -75 -16
-10 -29 -22 -28 -25 4 -15 -82 -129 -146 -194 -40 -41 -66 -71 -57 -66 8 4 26
20 40 35 14 15 33 31 43 37 16 8 15 5 -4 -21 -33 -45 -152 -138 -157 -123 -2
7 -8 9 -14 6 -7 -4 -6 -9 2 -14 12 -7 -104 -90 -127 -90 -6 0 -13 -4 -15 -8
-4 -10 -110 -54 -115 -48 -3 2 25 19 62 37 36 17 69 37 72 43 4 6 -1 5 -10 -3
-9 -7 -17 -10 -17 -5 0 4 -5 3 -12 -4 -7 -7 -19 -12 -28 -12 -8 1 12 15 45 32
32 17 91 56 130 86 38 31 76 61 83 67 56 44 127 122 92 100 -15 -9 -12 4 5 21
8 9 15 26 15 39 0 13 4 27 10 30 5 3 10 15 10 26 0 11 7 22 15 25 8 4 15 10
15 16 0 5 -5 6 -12 2 -8 -5 -9 0 -5 17 4 13 7 31 7 39 0 13 1 13 11 0 7 -11 8
-3 4 30 -11 79 -35 151 -47 144 -7 -5 -9 -2 -5 9 4 12 2 14 -10 10 -12 -5 -14
-3 -8 7 13 21 14 60 2 57 -6 -1 -12 7 -13 18 -3 52 -14 65 -53 65 -95 0 -121
20 -123 93 -1 23 -4 26 -21 21 -13 -4 -17 -2 -13 5 9 13 -29 29 -104 42 -96
18 -130 29 -130 44 0 8 6 15 14 15 8 0 18 5 22 12 5 7 3 8 -6 3 -9 -5 -11 -4
-6 3 4 7 14 12 22 12 8 0 12 5 9 10 -3 6 2 10 12 10 17 1 17 1 0 11 -11 6 -24
12 -30 13 -18 3 -37 16 -37 27 0 13 32 11 105 -7 49 -12 68 -14 79 -5 7 6 31
12 52 14 l39 2 1 53 c0 36 -2 47 -8 33 -5 -14 -16 -21 -33 -21 -31 0 -31 8 -2
51 12 19 29 47 37 62 8 16 16 24 18 18 2 -6 14 -8 28 -5 13 3 41 -1 63 -9 21
-9 47 -14 57 -11 11 3 30 1 44 -4 20 -7 24 -16 25 -52 1 -41 0 -42 -15 -22
-20 24 -75 54 -84 45 -3 -4 -6 -16 -6 -27 1 -20 1 -20 14 -3 17 23 42 13 62
-24 11 -23 21 -29 46 -29 17 0 28 3 25 7 -4 3 1 12 11 20 13 11 13 14 2 10
-12 -4 -15 4 -15 34 1 41 -1 42 -66 53 l-35 6 2 66 c2 36 8 71 14 79 25 30
-42 85 -102 85 l-33 0 25 -20 25 -20 -35 7 c-32 6 -34 5 -21 -11 24 -28 6 -27
-25 2 -16 15 -38 34 -48 42 -18 13 -19 13 -11 0 8 -13 6 -13 -14 0 -19 13 -33
14 -77 6 -56 -11 -57 -12 -55 -71 1 -24 -3 -19 -19 24 -11 30 -18 56 -16 58 2
2 23 10 47 17 40 13 42 14 14 15 -34 1 -46 8 -61 36 -6 11 -31 35 -55 54 -32
25 -38 33 -20 28 18 -4 24 -1 28 14 3 12 9 17 12 11 3 -5 19 -12 35 -16 26 -6
28 -5 22 16 -3 13 -6 29 -6 37 0 9 -8 11 -25 7 -18 -5 -25 -2 -25 9 0 8 7 15
15 15 24 0 17 13 -18 38 -33 22 -84 31 -72 12 9 -14 -18 -13 -32 1 -20 20 -41
3 -36 -28 4 -22 2 -25 -6 -13 -6 8 -11 25 -11 37 0 16 -4 21 -15 17 -8 -4 -15
-10 -15 -16 0 -5 5 -6 10 -3 6 3 10 3 10 -2 0 -4 3 -18 6 -29 4 -14 0 -23 -10
-27 -9 -4 -13 -1 -10 6 3 8 -8 13 -28 14 -18 0 -27 -1 -20 -4 6 -2 12 -9 12
-14 0 -18 -26 -8 -69 26 -24 19 -48 35 -53 35 -5 0 -6 5 -3 10 3 6 -3 10 -14
10 -12 0 -21 4 -21 9 0 10 54 0 85 -16 13 -6 36 -6 62 -1 38 8 41 11 40 41 -2
23 -9 35 -27 44 -32 16 -82 17 -98 1 -9 -9 -21 -8 -51 2 -21 7 -43 10 -49 6
-16 -9 -43 29 -35 50 5 14 -5 10 -36 -15 l-43 -34 -73 17 c-76 18 -105 39
-124 89 -10 26 -12 27 -27 12 -20 -20 -12 -58 23 -104 l26 -34 -29 7 c-16 4
-56 11 -90 15 -33 4 -73 14 -90 22 -24 12 -28 20 -26 44 5 43 21 57 58 53 18
-2 30 0 28 4 -3 4 -17 8 -32 9 -22 0 -18 4 23 20 72 30 210 68 280 78 93 13
153 12 287 -5z m91 9 c-7 -2 -19 -2 -25 0 -7 3 -2 5 12 5 14 0 19 -2 13 -5z
m54 -9 c-3 -3 -12 -4 -19 -1 -8 3 -5 6 6 6 11 1 17 -2 13 -5z m-797 -129 c-20
-21 -22 -29 -14 -57 12 -41 61 -75 122 -84 46 -7 46 -7 17 -16 -16 -4 -65 -12
-108 -18 -92 -11 -156 -42 -234 -114 -71 -64 -100 -105 -83 -116 7 -5 20 -5
29 -2 14 5 14 3 2 -11 -7 -9 -22 -17 -32 -17 -24 0 -53 -32 -90 -100 -57 -104
-67 -147 -74 -330 -9 -219 -25 -266 -85 -243 -28 10 -29 10 -19 -8 13 -26 55
-41 90 -34 22 5 30 2 40 -17 6 -13 33 -46 59 -74 26 -27 55 -65 64 -82 16 -32
33 -45 23 -18 -3 8 1 20 10 28 14 12 15 9 9 -24 -4 -20 -3 -39 2 -42 5 -3 19
-41 32 -85 38 -135 13 -201 -71 -189 l-33 5 28 -23 c29 -26 83 -32 118 -13 11
6 31 35 44 65 27 62 53 71 81 27 20 -32 34 -44 44 -37 13 7 -4 -80 -19 -104
-9 -13 -25 -28 -36 -32 -19 -8 -19 -9 5 -9 53 -2 114 78 102 131 l-5 23 17
-23 c19 -26 73 -55 134 -72 42 -11 44 -10 70 19 26 29 50 43 37 22 -4 -5 10
-26 29 -46 38 -39 72 -43 68 -10 -1 11 0 15 3 8 3 -7 13 -9 22 -6 14 6 15 4 5
-9 -7 -8 -9 -19 -5 -23 4 -5 1 -5 -5 -1 -7 4 -13 3 -13 -1 0 -5 -10 -13 -22
-18 -13 -6 -26 -21 -29 -35 -13 -53 -21 -66 -57 -82 -20 -10 -63 -21 -94 -24
-46 -5 -55 -10 -51 -23 3 -11 2 -12 -4 -3 -6 8 -42 12 -114 12 -57 0 -138 6
-179 12 -73 11 -76 13 -143 77 -63 61 -181 213 -194 250 -4 9 -13 24 -21 33
-8 10 -12 26 -9 38 3 12 0 20 -7 20 -7 0 -20 16 -29 35 -20 42 -21 49 -5 39 8
-5 9 -2 5 9 -3 9 -2 19 3 22 5 3 7 12 4 20 -4 8 -10 12 -15 9 -5 -3 -7 -9 -5
-13 3 -4 1 -12 -3 -19 -5 -8 -11 0 -18 23 -10 33 -10 35 7 30 26 -8 31 7 15
38 -12 24 -12 28 6 37 11 6 24 8 29 5 13 -8 1 24 -21 56 -10 14 -16 29 -13 31
2 3 -7 4 -21 3 -15 -2 -23 1 -19 7 4 7 -2 7 -17 3 -21 -7 -22 -6 -10 8 9 11
22 15 40 11 14 -3 21 -2 16 3 -12 9 -11 34 3 80 6 19 7 35 2 38 -6 3 -5 16 0
30 10 25 11 54 3 98 l-5 29 -30 -29 c-20 -19 -28 -35 -25 -50 2 -13 0 -23 -4
-23 -10 0 -11 21 -3 72 4 21 10 35 14 33 5 -3 6 13 3 34 -7 50 52 233 109 342
51 97 157 239 228 307 59 57 172 138 254 184 63 34 76 35 46 3z m-257 -26 c-3
-11 -15 -24 -27 -29 -11 -4 -33 -20 -48 -34 -14 -15 -29 -23 -32 -18 -3 6 7
18 22 28 15 10 41 30 57 46 17 15 31 28 32 28 0 0 -1 -9 -4 -21z m1637 -64
c13 -14 19 -25 13 -25 -5 0 -20 11 -33 25 -13 14 -19 25 -13 25 5 0 20 -11 33
-25z m-1580 12 c0 -2 -10 -12 -22 -23 l-23 -19 19 23 c18 21 26 27 26 19z
m-60 -50 c0 -2 -12 -14 -27 -28 l-28 -24 24 28 c23 25 31 32 31 24z m933 -4
c-7 -2 -21 -2 -30 0 -10 3 -4 5 12 5 17 0 24 -2 18 -5z m-237 -62 c-10 -11
-31 -25 -47 -31 -29 -12 -39 -30 -17 -30 6 0 9 -3 6 -6 -10 -10 -48 20 -48 38
0 10 1 18 3 18 1 0 27 9 57 19 61 22 71 20 46 -8z m64 5 c0 -2 -7 -7 -16 -10
-8 -3 -12 -2 -9 4 6 10 25 14 25 6z m-40 -26 c0 -5 -13 -16 -30 -25 -35 -18
-40 -5 -7 18 26 19 37 21 37 7z m49 -13 c-9 -7 -21 -22 -27 -34 -8 -14 -18
-20 -32 -16 -11 3 -20 10 -20 15 0 6 9 8 20 5 11 -3 23 0 27 5 3 7 1 8 -5 4
-8 -5 -10 -2 -6 8 3 9 9 14 13 12 4 -3 13 -1 21 5 22 13 28 10 9 -4z m-889
-21 c0 -2 -8 -10 -17 -17 -16 -13 -17 -12 -4 4 13 16 21 21 21 13z m550 -11
c0 -8 -4 -15 -10 -15 -5 0 -7 7 -4 15 4 8 8 15 10 15 2 0 4 -7 4 -15z m462 -5
c20 -6 46 -23 58 -37 22 -28 69 -65 56 -45 -4 7 -2 10 7 6 7 -2 14 -10 14 -17
0 -18 -81 -18 -129 -1 -48 17 -102 20 -78 4 10 -6 11 -10 3 -10 -7 0 -13 -4
-13 -10 0 -5 7 -10 16 -10 8 0 12 -4 9 -10 -15 -24 -94 -2 -124 34 -12 14 -9
16 19 16 27 0 30 2 21 14 -9 11 -10 20 -2 35 22 40 70 51 143 31z m-576 -65
c-45 -27 -62 -33 -72 -24 -21 17 -17 31 6 19 16 -9 27 -6 57 15 21 14 44 25
52 25 8 0 -11 -16 -43 -35z m49 -15 c-3 -5 -12 -10 -18 -10 -7 0 -6 4 3 10 19
12 23 12 15 0z m-172 -35 c-3 -9 -8 -14 -10 -11 -3 3 -2 9 2 15 9 16 15 13 8
-4z m57 7 c0 -5 -12 -19 -26 -33 -14 -13 -37 -44 -50 -69 l-25 -45 6 50 c6 45
25 89 25 57 0 -10 5 -10 21 -2 11 7 18 14 15 17 -7 7 13 33 25 33 5 0 9 -4 9
-8z m404 -14 c-4 -7 -3 -8 4 -4 7 4 27 -5 46 -19 19 -14 43 -26 53 -25 91 5
150 7 113 3 -24 -2 -82 -15 -128 -29 -113 -32 -119 -32 -114 10 2 18 -1 43 -7
55 -11 19 -9 21 14 21 17 0 24 -4 19 -12z m-378 -46 c-15 -29 -46 -61 -46 -47
0 10 49 75 56 75 2 0 -2 -13 -10 -28z m824 -34 c36 -14 72 -28 80 -32 8 -3 -3
-3 -25 0 -49 7 -110 35 -150 70 l-30 26 30 -20 c17 -10 59 -30 95 -44z m-550
42 c0 -13 -30 -73 -34 -68 -9 11 8 78 20 78 8 0 14 -5 14 -10z m600 -15 c14
-8 21 -14 15 -14 -5 0 -21 6 -35 14 -14 8 -20 14 -15 14 6 0 21 -6 35 -14z
m-1429 -38 c-10 -9 -11 -8 -5 6 3 10 9 15 12 12 3 -3 0 -11 -7 -18z m601 -16
c-10 -17 -21 -28 -25 -25 -3 4 4 19 15 35 12 16 23 27 25 25 2 -2 -4 -18 -15
-35z m-282 -35 c-13 -63 -30 -83 -30 -36 0 32 28 105 37 96 3 -2 0 -29 -7 -60z
m183 6 c-3 -12 -9 -22 -14 -22 -12 0 -11 7 3 30 15 24 19 21 11 -8z m818 -12
c49 -25 190 -128 255 -188 21 -18 23 -18 45 -1 22 16 23 16 39 -5 11 -15 15
-39 14 -84 -1 -35 -5 -66 -8 -69 -3 -4 -6 1 -6 9 0 10 -13 18 -37 22 -49 9
-93 26 -93 37 0 4 28 9 62 11 34 2 63 8 65 14 3 8 -19 10 -72 6 -65 -4 -75 -2
-75 12 0 9 -2 16 -4 16 -2 0 -13 3 -23 6 -17 6 -17 6 0 -8 18 -13 17 -15 -7
-26 l-26 -12 0 -217 0 -218 -31 -18 c-18 -10 -34 -15 -37 -13 -2 3 3 23 12 46
15 38 22 130 11 142 -3 3 -23 2 -45 -2 -22 -4 -40 -4 -40 0 0 4 -29 5 -65 2
l-65 -5 26 69 c31 84 42 96 88 97 28 1 32 3 20 10 -12 7 -13 11 -4 17 9 6 7
13 -9 29 -22 22 -28 51 -12 51 20 0 61 -20 81 -40 28 -28 37 -3 15 40 -19 37
-10 50 32 42 18 -3 24 -1 19 7 -4 6 -13 11 -19 11 -7 0 -44 20 -82 45 -85 56
-194 109 -217 107 -10 0 -18 3 -18 8 0 4 -16 11 -35 14 -19 4 -37 11 -40 15
-3 5 4 7 15 4 12 -3 29 2 40 12 27 25 100 45 139 39 19 -3 60 -19 92 -34z
m-1355 -17 c-8 -15 -15 -25 -16 -21 0 12 23 58 27 54 3 -2 -2 -17 -11 -33z
m834 10 c11 -17 11 -17 6 0 -3 9 -1 17 4 17 6 0 10 -6 10 -14 0 -15 -37 -46
-55 -46 -5 0 -3 5 5 10 13 8 13 11 1 19 -7 5 -10 14 -7 20 10 16 23 14 36 -6z
m70 6 c0 11 5 10 20 -4 16 -14 17 -20 8 -27 -19 -12 0 -10 24 3 16 9 19 8 16
-2 -3 -8 -20 -16 -39 -20 -19 -3 -41 -9 -48 -14 -11 -6 -13 -3 -8 16 4 13 7
33 7 44 0 17 2 17 10 5 8 -12 10 -12 10 -1z m828 -42 c21 -12 18 -14 -38 -26
-33 -8 -62 -12 -64 -10 -2 2 0 14 5 27 6 17 16 22 41 22 18 -1 43 -6 56 -13z
m188 -8 c19 -22 19 -22 -3 -8 -13 8 -23 17 -23 21 0 12 6 9 26 -13z m-1415
-52 c-13 -13 -14 5 -3 43 l7 25 3 -29 c2 -16 -1 -33 -7 -39z m539 54 c0 -5 -9
-7 -20 -4 -11 3 -20 7 -20 9 0 2 9 4 20 4 11 0 20 -4 20 -9z m-325 -48 c-4
-25 -1 -43 14 -67 28 -44 27 -46 -14 -46 -33 0 -35 2 -35 36 0 50 20 125 32
118 5 -4 7 -22 3 -41z m441 24 c33 -12 71 -30 85 -40 23 -17 23 -17 -16 -1
-22 9 -71 27 -110 39 -42 14 -60 24 -45 24 14 0 52 -9 86 -22z m452 -32 c-3
-3 -9 2 -12 12 -6 14 -5 15 5 6 7 -7 10 -15 7 -18z m162 15 c0 -5 -12 -10 -26
-10 -14 0 -23 4 -19 10 3 6 15 10 26 10 10 0 19 -4 19 -10z m-985 -36 c0 -37
-9 -33 -18 7 -4 17 -2 26 6 26 7 0 12 -14 12 -33z m200 16 c4 -6 -6 -10 -22
-9 -25 0 -26 1 -8 9 11 5 21 9 22 9 1 1 5 -3 8 -9z m-140 -20 c10 -11 13 -20
7 -20 -7 0 -12 5 -12 10 0 6 -7 10 -15 10 -8 0 -15 5 -15 10 0 16 15 12 35
-10z m85 16 c0 -3 -4 -8 -10 -11 -5 -3 -10 -1 -10 4 0 6 5 11 10 11 6 0 10 -2
10 -4z m990 -36 c0 -13 -1 -13 -10 0 -5 8 -10 22 -10 30 0 13 1 13 10 0 5 -8
10 -22 10 -30z m-1423 -17 c-3 -10 -5 -4 -5 12 0 17 2 24 5 18 2 -7 2 -21 0
-30z m1262 -11 c0 -30 -2 -33 -9 -17 -12 28 -12 67 0 60 6 -3 10 -23 9 -43z
m-604 -7 c22 -4 59 -15 82 -26 23 -10 59 -19 80 -19 l38 -1 -25 -14 c-21 -11
-36 -42 -79 -162 -30 -81 -69 -177 -87 -212 -19 -35 -34 -72 -34 -83 0 -10 -4
-18 -10 -18 -10 0 -29 40 -56 118 -11 33 -24 52 -33 52 -20 -1 -51 -24 -51
-37 0 -6 -8 -17 -17 -24 -16 -12 -17 -12 -5 2 10 14 9 17 -8 22 -11 3 -20 10
-20 17 0 7 8 9 20 5 11 -3 25 -3 32 1 15 9 -160 57 -182 49 -9 -3 -8 1 4 10
11 8 16 15 11 15 -5 0 1 7 13 16 48 34 70 137 37 180 -13 17 -14 13 -15 -49 0
-64 -2 -70 -37 -108 -34 -36 -44 -40 -88 -42 -27 -1 -57 1 -65 3 -13 4 -15
-12 -18 -99 -1 -58 -8 -111 -14 -118 -6 -7 -24 -13 -40 -13 -28 0 -29 1 -14
22 22 32 23 395 1 437 l-14 28 97 7 c76 5 106 3 134 -8 22 -9 39 -11 44 -6 11
11 55 18 134 21 54 2 54 2 15 8 l-40 7 40 11 c47 14 94 21 115 17 8 -1 33 -5
55 -9z m-955 -9 c0 -18 -6 -22 -47 -31 -41 -8 -44 8 -5 29 35 19 52 20 52 2z
m-276 -45 c-4 -17 -9 -30 -11 -27 -3 2 -2 19 2 36 9 41 17 33 9 -9z m514 2
c26 -4 30 -8 21 -19 -6 -8 -9 -23 -6 -33 4 -18 2 -18 -32 4 -37 24 -60 29
-120 27 -46 -3 -115 -71 -131 -132 -16 -58 -9 -155 15 -204 23 -49 95 -96 144
-96 21 0 59 13 88 29 48 26 63 29 63 11 0 -4 -24 -20 -52 -36 -44 -24 -65 -29
-123 -29 -118 0 -164 41 -185 164 -26 153 33 271 156 316 37 14 73 14 162 -2z
m95 -110 c24 -47 25 -52 10 -65 -9 -7 -14 -8 -10 -2 3 6 -3 28 -13 50 -11 21
-20 47 -20 58 0 25 2 22 33 -41z m-630 -23 c-4 -36 -1 -59 13 -87 24 -50 24
-55 6 -73 -14 -13 -15 -12 -9 2 3 9 -1 22 -9 28 -15 13 -20 113 -8 158 10 37
13 25 7 -28z m547 -22 c0 -19 -2 -20 -10 -8 -13 19 -13 30 0 30 6 0 10 -10 10
-22z m106 -149 c13 -21 24 -41 24 -45 0 -10 -29 16 -61 57 -26 33 -27 37 -8
32 11 -3 31 -23 45 -44z m-655 -1 c0 -33 2 -38 9 -23 8 18 9 17 9 -8 1 -16 -5
-35 -13 -43 -12 -12 -15 -5 -18 51 -1 36 0 65 5 65 4 0 7 -19 8 -42z m833 -20
c-3 -4 -16 -1 -30 8 -32 21 -30 25 5 11 17 -6 28 -14 25 -19z m41 22 c-3 -5
-12 -10 -18 -10 -7 0 -6 4 3 10 19 12 23 12 15 0z m-815 -10 c0 -5 -5 -10 -11
-10 -5 0 -7 5 -4 10 3 6 8 10 11 10 2 0 4 -4 4 -10z m2337 -22 c-3 -8 -6 -5
-6 6 -1 11 2 17 5 13 3 -3 4 -12 1 -19z m-1435 -37 c73 -18 96 -31 56 -31 -27
0 -127 32 -155 50 -15 10 -14 10 7 5 14 -4 55 -14 92 -24z m171 12 c-7 -2 -21
-2 -30 0 -10 3 -4 5 12 5 17 0 24 -2 18 -5z m15 -59 c31 -6 28 -24 -5 -24 -41
0 -104 20 -98 30 5 8 45 6 103 -6z m626 -38 c-13 -21 -24 -26 -59 -26 -55 0
-105 10 -105 21 0 5 30 9 66 9 57 0 68 3 87 25 28 30 36 8 11 -29z m-44 34
c12 -8 12 -10 -5 -9 -11 0 -29 4 -40 9 -18 8 -18 9 5 9 14 0 32 -4 40 -9z
m-1680 -15 c9 -11 8 -19 -4 -37 -9 -12 -16 -18 -16 -12 0 5 6 16 13 23 10 10
8 15 -7 27 -11 8 -15 14 -9 14 6 0 16 -7 23 -15z m-37 -40 c5 -28 4 -34 -3
-20 -8 19 -14 73 -6 64 2 -2 6 -22 9 -44z m822 25 c3 -6 -1 -7 -9 -4 -18 7
-21 14 -7 14 6 0 13 -4 16 -10z m525 2 c0 -5 -7 -17 -15 -28 -13 -16 -14 -16
-9 -1 5 12 2 16 -9 12 -8 -4 -17 1 -20 9 -5 12 1 16 23 16 17 0 30 -4 30 -8z
m-410 -67 c0 -3 -22 6 -50 20 -27 14 -50 28 -50 30 0 3 23 -6 50 -20 28 -14
50 -28 50 -30z m538 34 c22 -9 31 -29 12 -29 -5 0 -10 5 -10 10 0 6 -15 10
-33 10 -18 0 -42 7 -53 15 -17 13 -16 14 21 8 22 -3 50 -10 63 -14z m115 -25
c15 -4 27 -11 27 -16 0 -6 -7 -7 -17 -2 -10 4 -35 9 -55 12 -22 2 -35 8 -32
14 4 5 16 7 28 4 11 -4 33 -9 49 -12z m-1576 -36 c-3 -8 -6 -5 -6 6 -1 11 2
17 5 13 3 -3 4 -12 1 -19z m1626 -13 c-3 -9 -8 -14 -10 -11 -3 3 -2 9 2 15 9
16 15 13 8 -4z m-1616 -27 c-3 -8 -6 -5 -6 6 -1 11 2 17 5 13 3 -3 4 -12 1
-19z m146 -294 c37 -56 102 -137 144 -181 84 -86 178 -163 196 -163 7 0 3 7
-7 15 -31 23 -8 18 45 -12 53 -29 61 -45 9 -18 -55 28 -43 10 17 -28 42 -25
60 -32 66 -24 6 8 7 6 4 -5 -3 -9 1 -19 9 -22 9 -3 12 -1 9 4 -12 19 6 32 19
14 7 -9 23 -18 37 -20 35 -5 159 -50 171 -62 6 -6 25 -8 43 -5 20 3 42 -1 56
-10 13 -8 40 -17 59 -21 32 -6 33 -5 15 8 -18 13 -17 14 18 6 21 -4 44 -14 53
-21 10 -8 18 -9 25 -2 7 7 33 9 65 6 41 -4 54 -2 54 8 0 10 2 11 8 2 9 -15
110 -1 216 29 87 24 98 17 14 -10 -58 -19 -99 -29 -203 -51 -37 -8 -38 -9 -10
-11 28 -2 27 -3 -10 -11 -52 -10 -135 -11 -135 -1 0 4 -28 7 -62 6 -51 -2 -57
-1 -33 6 24 8 20 8 -22 5 -32 -2 -53 0 -53 6 0 6 -8 8 -19 4 -45 -14 -341 87
-341 117 0 5 -5 6 -10 3 -13 -8 -91 36 -87 49 2 6 -28 33 -67 60 -88 61 -216
191 -276 279 -25 37 -51 67 -57 67 -7 0 -14 3 -14 8 -1 4 -3 16 -4 27 -2 11
-16 47 -33 81 -17 33 -34 73 -37 90 -4 16 9 -5 27 -46 19 -41 64 -121 101
-176z m294 164 c9 13 9 8 0 -23 l-12 -39 -12 39 c-6 22 -11 49 -11 60 0 11 5
3 12 -17 10 -33 13 -36 23 -20z m919 -9 c4 -8 1 -8 -14 0 -12 6 -24 16 -28 22
-4 8 -1 8 14 0 12 -6 24 -16 28 -22z m808 -189 c-10 -16 -20 -27 -23 -25 -6 7
21 55 31 55 5 0 1 -13 -8 -30z m-1844 -222 c0 -13 -5 -9 -31 19 l-24 26 27
-19 c15 -10 28 -22 28 -26z m100 -84 c0 -3 -13 4 -30 16 -16 12 -30 24 -30 26
0 3 14 -4 30 -16 17 -12 30 -24 30 -26z m1145 -173 c-6 -5 -23 -12 -40 -16
l-30 -6 25 15 c28 17 60 22 45 7z m-77 -27 c-8 -7 -119 -34 -138 -32 -8 0 17
8 55 18 78 20 91 23 83 14z"/>
<path d="M1083 2420 c16 -5 34 -12 41 -17 6 -4 3 0 -7 10 -11 9 -29 17 -41 16
-17 -1 -16 -2 7 -9z"/>
<path d="M987 2402 c-26 -28 -20 -36 11 -14 15 10 34 22 42 25 9 3 5 6 -11 6
-14 1 -33 -7 -42 -17z"/>
<path d="M2205 1961 c2 -9 4 -19 4 -23 1 -5 6 -8 12 -8 8 0 8 5 -1 15 -9 10
-9 15 -1 15 6 0 11 4 11 8 0 5 -6 9 -14 9 -7 0 -12 -7 -11 -16z"/>
<path d="M2240 1911 c0 -6 4 -13 10 -16 6 -3 7 1 4 9 -7 18 -14 21 -14 7z"/>
<path d="M2250 1820 c8 -5 20 -10 25 -10 6 0 3 5 -5 10 -8 5 -19 10 -25 10 -5
0 -3 -5 5 -10z"/>
<path d="M2290 1761 c0 -4 5 -22 11 -39 13 -39 6 -67 -9 -32 -9 23 -11 23 -17
6 -5 -11 -3 -21 6 -26 15 -10 14 -11 -26 -29 l-30 -13 24 -12 c19 -8 25 -8 29
2 7 23 21 12 24 -20 2 -17 9 -33 16 -36 9 -3 11 3 6 25 l-7 28 22 -19 c11 -11
24 -17 27 -14 9 10 -23 130 -37 139 -12 7 -12 9 0 9 11 0 10 5 -4 20 -19 21
-35 26 -35 11z"/>
<path d="M2260 1751 c0 -5 5 -13 10 -16 6 -3 10 -2 10 4 0 5 -4 13 -10 16 -5
3 -10 2 -10 -4z"/>
<path d="M2250 1586 c0 -2 7 -7 16 -10 8 -3 12 -2 9 4 -6 10 -25 14 -25 6z"/>
<path d="M2036 1555 c-11 -8 -30 -15 -43 -15 -27 0 -31 -15 -6 -24 9 -4 25 1
37 12 12 11 30 24 41 30 14 8 15 11 5 11 -8 0 -24 -6 -34 -14z"/>
<path d="M2056 1509 c-17 -13 -26 -30 -26 -47 0 -33 14 -57 28 -48 6 3 13 -2
16 -12 4 -10 29 -30 56 -45 65 -35 74 -34 23 3 -27 20 -46 44 -54 68 -6 20
-15 41 -20 47 -14 14 -10 35 6 35 8 0 15 5 15 10 0 16 -15 12 -44 -11z"/>
<path d="M2343 1515 c0 -8 4 -15 9 -15 4 0 8 4 8 9 0 6 -4 12 -8 15 -5 3 -9
-1 -9 -9z"/>
<path d="M2326 1467 c3 -10 9 -15 12 -12 3 3 0 11 -7 18 -10 9 -11 8 -5 -6z"/>
<path d="M2353 1450 c-1 -11 2 -18 8 -15 11 7 12 35 1 35 -4 0 -8 -9 -9 -20z"/>
<path d="M2330 1409 c0 -5 5 -7 10 -4 6 3 10 8 10 11 0 2 -4 4 -10 4 -5 0 -10
-5 -10 -11z"/>
<path d="M1983 1368 c2 -13 46 -48 59 -48 3 0 -7 14 -22 30 -30 32 -42 38 -37
18z"/>
<path d="M2348 1343 c6 -2 18 -2 25 0 6 3 1 5 -13 5 -14 0 -19 -2 -12 -5z"/>
<path d="M2390 1336 c0 -2 8 -10 18 -17 15 -13 16 -12 3 4 -13 16 -21 21 -21
13z"/>
<path d="M2210 1305 c7 -8 15 -46 18 -84 4 -67 4 -69 -33 -110 -24 -26 -32
-41 -22 -41 8 0 35 -12 60 -26 32 -17 57 -24 79 -21 l33 4 -37 1 c-27 2 -43
10 -62 33 -14 17 -26 34 -26 37 0 4 24 7 53 7 101 0 152 45 162 141 l4 49 -10
-48 c-12 -61 -33 -93 -72 -113 -30 -16 -91 -12 -102 6 -4 6 1 7 11 3 13 -5 16
-2 12 9 -4 9 -2 20 4 26 21 21 -42 142 -74 142 -6 0 -5 -6 2 -15z"/>
<path d="M2134 1206 c22 -60 34 -82 42 -75 34 28 8 111 -45 142 l-28 17 31
-84z m34 -21 c-3 -3 -9 2 -12 12 -6 14 -5 15 5 6 7 -7 10 -15 7 -18z"/>
<path d="M2009 1152 c16 -30 37 -43 78 -47 21 -2 29 -2 18 1 -11 4 -36 19 -56
35 -43 34 -54 36 -40 11z"/>
<path d="M2379 1053 c-13 -16 -12 -17 4 -4 16 13 21 21 13 21 -2 0 -10 -8 -17
-17z"/>
<path d="M2395 888 c-5 -13 -18 -45 -30 -73 -12 -27 -27 -63 -34 -80 -10 -28
-10 -29 4 -11 18 24 78 176 71 183 -2 2 -7 -6 -11 -19z"/>
<path d="M400 1939 c0 -36 19 -50 56 -40 l29 8 -25 7 c-14 5 -33 18 -42 30
l-18 21 0 -26z"/>
<path d="M1630 1419 c0 -13 -4 -18 -12 -13 -7 5 -8 3 -2 -7 4 -8 9 -27 10 -42
5 -55 14 -40 14 21 0 34 -2 62 -5 62 -3 0 -5 -9 -5 -21z"/>
<path d="M1217 1543 c-4 -3 -7 -14 -7 -23 0 -21 98 -293 109 -300 4 -3 13 -14
19 -25 10 -19 11 -19 21 8 15 40 14 45 -12 42 -21 -3 -26 6 -51 82 -15 46 -25
91 -22 99 4 10 2 12 -6 8 -8 -5 -9 -2 -5 9 3 10 2 17 -3 17 -12 0 -33 67 -25
80 7 11 -8 14 -18 3z"/>
<path d="M851 1526 c-9 -11 -10 -39 -4 -108 l8 -93 36 -3 c19 -2 47 2 62 7
l26 10 -39 39 c-24 25 -35 43 -29 49 6 6 6 20 -1 38 -6 15 -9 38 -8 49 4 26
-33 34 -51 12z"/>
<path d="M1136 1517 c3 -10 9 -15 12 -12 3 3 0 11 -7 18 -10 9 -11 8 -5 -6z"/>
<path d="M1445 1486 c-9 -24 -15 -50 -13 -58 3 -7 13 11 22 40 22 66 15 80 -9
18z"/>
<path d="M660 286 c0 -8 73 -47 77 -42 3 3 -10 14 -28 25 -33 20 -49 26 -49
17z"/>
<path d="M810 220 c8 -5 20 -10 25 -10 6 0 3 5 -5 10 -8 5 -19 10 -25 10 -5 0
-3 -5 5 -10z"/>
<path d="M1318 93 c12 -2 30 -2 40 0 9 3 -1 5 -23 4 -22 0 -30 -2 -17 -4z"/>
<path d="M865 2480 c4 -6 11 -8 16 -5 14 9 11 15 -7 15 -8 0 -12 -5 -9 -10z"/>
<path d="M1788 2478 c5 -5 16 -8 23 -6 8 3 3 7 -10 11 -17 4 -21 3 -13 -5z"/>
<path d="M1870 2440 c8 -5 20 -10 25 -10 6 0 3 5 -5 10 -8 5 -19 10 -25 10 -5
0 -3 -5 5 -10z"/>
</g>
</svg>
